<?xml version="1.0" standalone="no"?>
<!DOCTYPE svg PUBLIC "-//W3C//DTD SVG 20010904//EN"
 "http://www.w3.org/TR/2001/REC-SVG-20010904/DTD/svg10.dtd">
<svg version="1.0" xmlns="http://www.w3.org/2000/svg"
 width="314.000000pt" height="314.000000pt" viewBox="0 0 314.000000 314.000000"
 preserveAspectRatio="xMidYMid meet">
<metadata>
Created by potrace 1.14, written by Peter Selinger 2001-2017
</metadata>
<g transform="translate(0.000000,314.000000) scale(0.100000,-0.100000)"
fill="#000000" stroke="none">
<path d="M1378 3124 c-291 -37 -577 -161 -798 -345 -76 -63 -180 -167 -218
-218 -15 -20 -30 -38 -33 -41 -15 -12 -120 -181 -152 -245 -79 -160 -133 -335
-155 -505 -10 -75 -9 -332 1 -405 15 -111 61 -285 97 -370 84 -198 197 -371
340 -516 244 -248 536 -396 895 -454 79 -13 363 -14 435 -1 19 3 51 8 70 11
201 32 522 175 659 294 13 12 27 21 31 21 4 0 57 49 116 108 156 155 267 318
349 511 35 84 83 235 90 289 3 15 7 38 10 52 28 118 25 404 -5 550 -6 30 -13
66 -16 80 -17 96 -104 308 -171 422 -253 425 -680 705 -1163 764 -97 11 -282
11 -382 -2z"/>
</g>
</svg>
